<svg width="65" height="64" viewBox="0 0 65 64" fill="none" xmlns="http://www.w3.org/2000/svg">
<g id="Group">
<g id="Group_2">
<g id="Vector">
<path d="M61.1927 37.7273C60.5052 37.4426 59.7815 37.2982 59.0416 37.2982C57.4099 37.2982 55.9026 37.9946 54.856 39.1615L53.636 38.6562L50.1559 37.2147C50.6498 35.5616 50.9163 33.8113 50.9163 31.9998C50.9163 30.1883 50.6496 28.4381 50.1559 26.7849L53.636 25.3435L54.856 24.8381C55.9026 26.0051 57.4099 26.7014 59.0416 26.7014C59.7815 26.7014 60.5052 26.5571 61.1927 26.2722C64.0581 25.0852 65.4239 21.7883 64.2369 18.9227C63.3629 16.8128 61.3224 15.4493 59.0386 15.4493C58.2987 15.4493 57.575 15.5937 56.8875 15.8786C54.6292 16.814 53.3038 19.0598 53.4238 21.3722L52.1966 21.8805L48.7176 23.3215C47.0275 20.208 44.458 17.6383 41.3445 15.9483L42.7855 12.4694L43.2933 11.2436C43.3916 11.2487 43.4903 11.2517 43.5893 11.2517C45.8731 11.2517 47.9135 9.88836 48.7876 7.77836C49.9745 4.91287 48.6089 1.61587 45.7434 0.428874C45.0558 0.144375 44.3321 0 43.5923 0C41.3084 0 39.268 1.36337 38.3939 3.47337C37.4585 5.73161 38.1093 8.25698 39.8293 9.80723L39.3228 11.0301L37.8813 14.5102C36.2282 14.0165 34.4779 13.7498 32.6664 13.7498C30.8549 13.7498 29.1047 14.0165 27.4516 14.5102L26.0101 11.0301L25.5036 9.80723C27.2236 8.25698 27.8743 5.73161 26.9389 3.47324C26.0648 1.36337 24.0242 0 21.7404 0C21.0006 0 20.2768 0.144375 19.5893 0.429249C16.7239 1.61625 15.3582 4.91312 16.5452 7.77874C17.4192 9.88861 19.4597 11.2521 21.7434 11.2521C21.8424 11.2521 21.9411 11.2491 22.0394 11.244L22.5472 12.4697L23.9882 15.9487C20.8747 17.6388 18.3051 20.2083 16.6151 23.3218L13.1361 21.8808L11.909 21.3726C12.029 19.0602 10.7035 16.8143 8.44521 15.8788C7.75771 15.5941 7.03396 15.4497 6.29409 15.4497C4.01022 15.4497 1.96985 16.8131 1.09573 18.9231C-0.091147 21.7886 1.27448 25.0856 4.13997 26.2726C4.82747 26.5573 5.55122 26.7017 6.29109 26.7017C7.92284 26.7017 9.43009 26.0053 10.4767 24.8383L11.6967 25.3437L15.1768 26.7852C14.683 28.4383 14.4165 30.1886 14.4165 32.0001C14.4165 33.8116 14.6831 35.5618 15.1768 37.2149L11.6966 38.6562L10.4766 39.1615C9.42996 37.9946 7.92271 37.2982 6.29097 37.2982C5.55109 37.2982 4.82734 37.4426 4.13985 37.7274C1.27448 38.9144 -0.0912721 42.2113 1.09573 45.0769C1.96972 47.1868 4.01022 48.5503 6.29397 48.5503C7.03384 48.5503 7.75759 48.4059 8.44509 48.121C10.7033 47.1857 12.0288 44.9398 11.9088 42.6274L13.136 42.1192L16.6149 40.6782C18.3051 43.7917 20.8746 46.3613 23.9881 48.0513L22.5471 51.5303L22.0393 52.756C21.9409 52.7509 21.8423 52.7479 21.7433 52.7479C19.4594 52.7479 17.4191 54.1113 16.5449 56.2213C15.3581 59.0868 16.7237 62.3838 19.5892 63.5708C20.2767 63.8555 21.0004 63.9999 21.7403 63.9999C24.0242 63.9999 26.0646 62.6365 26.9387 60.5265C27.8741 58.2683 27.2233 55.7429 25.5033 54.1926L26.0098 52.9698L27.4513 49.4897C29.1044 49.9834 30.8547 50.25 32.6662 50.25C34.4777 50.25 36.2279 49.9834 37.881 49.4897L39.3225 52.9698L39.829 54.1926C38.109 55.7429 37.4583 58.2683 38.3937 60.5266C39.2677 62.6365 41.3082 64 43.5919 64C44.3318 64 45.0555 63.8556 45.743 63.5708C48.6084 62.3838 49.9741 59.0869 48.7871 56.2213C47.9131 54.1114 45.8726 52.7479 43.5889 52.7479C43.4899 52.7479 43.3913 52.7509 43.2929 52.756L42.7851 51.5303L41.3442 48.0513C44.4576 46.3612 47.0273 43.7917 48.7173 40.6782L52.1963 42.1192L53.4234 42.6274C53.3034 44.9398 54.6289 47.1857 56.8871 48.1212C57.5746 48.4059 58.2984 48.5503 59.0382 48.5503C61.3221 48.5503 63.3625 47.1869 64.2366 45.0769C65.4239 42.2113 64.0584 38.9143 61.1927 37.7273ZM32.6664 46.4998C24.6712 46.4998 18.1664 39.995 18.1664 31.9998C18.1664 24.0046 24.6712 17.4998 32.6664 17.4998C40.6617 17.4998 47.1664 24.0046 47.1664 31.9998C47.1664 39.995 40.6615 46.4998 32.6664 46.4998Z" fill="black"/>
<path d="M61.1927 37.7273C60.5052 37.4426 59.7815 37.2982 59.0416 37.2982C57.4099 37.2982 55.9026 37.9946 54.856 39.1615L53.636 38.6562L50.1559 37.2147C50.6498 35.5616 50.9163 33.8113 50.9163 31.9998C50.9163 30.1883 50.6496 28.4381 50.1559 26.7849L53.636 25.3435L54.856 24.8381C55.9026 26.0051 57.4099 26.7014 59.0416 26.7014C59.7815 26.7014 60.5052 26.5571 61.1927 26.2722C64.0581 25.0852 65.4239 21.7883 64.2369 18.9227C63.3629 16.8128 61.3224 15.4493 59.0386 15.4493C58.2987 15.4493 57.575 15.5937 56.8875 15.8786C54.6292 16.814 53.3038 19.0598 53.4238 21.3722L52.1966 21.8805L48.7176 23.3215C47.0275 20.208 44.458 17.6383 41.3445 15.9483L42.7855 12.4694L43.2933 11.2436C43.3916 11.2487 43.4903 11.2517 43.5893 11.2517C45.8731 11.2517 47.9135 9.88836 48.7876 7.77836C49.9745 4.91287 48.6089 1.61587 45.7434 0.428874C45.0558 0.144375 44.3321 0 43.5923 0C41.3084 0 39.268 1.36337 38.3939 3.47337C37.4585 5.73161 38.1093 8.25698 39.8293 9.80723L39.3228 11.0301L37.8813 14.5102C36.2282 14.0165 34.4779 13.7498 32.6664 13.7498C30.8549 13.7498 29.1047 14.0165 27.4516 14.5102L26.0101 11.0301L25.5036 9.80723C27.2236 8.25698 27.8743 5.73161 26.9389 3.47324C26.0648 1.36337 24.0242 0 21.7404 0C21.0006 0 20.2768 0.144375 19.5893 0.429249C16.7239 1.61625 15.3582 4.91312 16.5452 7.77874C17.4192 9.88861 19.4597 11.2521 21.7434 11.2521C21.8424 11.2521 21.9411 11.2491 22.0394 11.244L22.5472 12.4697L23.9882 15.9487C20.8747 17.6388 18.3051 20.2083 16.6151 23.3218L13.1361 21.8808L11.909 21.3726C12.029 19.0602 10.7035 16.8143 8.44521 15.8788C7.75771 15.5941 7.03396 15.4497 6.29409 15.4497C4.01022 15.4497 1.96985 16.8131 1.09573 18.9231C-0.091147 21.7886 1.27448 25.0856 4.13997 26.2726C4.82747 26.5573 5.55122 26.7017 6.29109 26.7017C7.92284 26.7017 9.43009 26.0053 10.4767 24.8383L11.6967 25.3437L15.1768 26.7852C14.683 28.4383 14.4165 30.1886 14.4165 32.0001C14.4165 33.8116 14.6831 35.5618 15.1768 37.2149L11.6966 38.6562L10.4766 39.1615C9.42996 37.9946 7.92271 37.2982 6.29097 37.2982C5.55109 37.2982 4.82734 37.4426 4.13985 37.7274C1.27448 38.9144 -0.0912721 42.2113 1.09573 45.0769C1.96972 47.1868 4.01022 48.5503 6.29397 48.5503C7.03384 48.5503 7.75759 48.4059 8.44509 48.121C10.7033 47.1857 12.0288 44.9398 11.9088 42.6274L13.136 42.1192L16.6149 40.6782C18.3051 43.7917 20.8746 46.3613 23.9881 48.0513L22.5471 51.5303L22.0393 52.756C21.9409 52.7509 21.8423 52.7479 21.7433 52.7479C19.4594 52.7479 17.4191 54.1113 16.5449 56.2213C15.3581 59.0868 16.7237 62.3838 19.5892 63.5708C20.2767 63.8555 21.0004 63.9999 21.7403 63.9999C24.0242 63.9999 26.0646 62.6365 26.9387 60.5265C27.8741 58.2683 27.2233 55.7429 25.5033 54.1926L26.0098 52.9698L27.4513 49.4897C29.1044 49.9834 30.8547 50.25 32.6662 50.25C34.4777 50.25 36.2279 49.9834 37.881 49.4897L39.3225 52.9698L39.829 54.1926C38.109 55.7429 37.4583 58.2683 38.3937 60.5266C39.2677 62.6365 41.3082 64 43.5919 64C44.3318 64 45.0555 63.8556 45.743 63.5708C48.6084 62.3838 49.9741 59.0869 48.7871 56.2213C47.9131 54.1114 45.8726 52.7479 43.5889 52.7479C43.4899 52.7479 43.3913 52.7509 43.2929 52.756L42.7851 51.5303L41.3442 48.0513C44.4576 46.3612 47.0273 43.7917 48.7173 40.6782L52.1963 42.1192L53.4234 42.6274C53.3034 44.9398 54.6289 47.1857 56.8871 48.1212C57.5746 48.4059 58.2984 48.5503 59.0382 48.5503C61.3221 48.5503 63.3625 47.1869 64.2366 45.0769C65.4239 42.2113 64.0584 38.9143 61.1927 37.7273ZM32.6664 46.4998C24.6712 46.4998 18.1664 39.995 18.1664 31.9998C18.1664 24.0046 24.6712 17.4998 32.6664 17.4998C40.6617 17.4998 47.1664 24.0046 47.1664 31.9998C47.1664 39.995 40.6615 46.4998 32.6664 46.4998Z" fill="url(#paint0_linear_131670_413)"/>
</g>
</g>
</g>
<defs>
<linearGradient id="paint0_linear_131670_413" x1="32.6663" y1="0" x2="32.6663" y2="64" gradientUnits="userSpaceOnUse">
<stop stop-color="#EF8080"/>
<stop offset="1" stop-color="#F0145A"/>
</linearGradient>
</defs>
</svg>
